<svg xmlns="http://www.w3.org/2000/svg" xmlns:xlink="http://www.w3.org/1999/xlink" version="1.1" id="Layer_1" x="0px" y="0px" viewBox="0 0 428.8 162.9" style="enable-background:new 0 0 428.8 162.9;" xml:space="preserve"> <style type="text/css"> .st0{fill:#1ABECB;} .st1{fill:#DA4537;} .st2{fill:#17ACB7;} .st3{fill:#FFFFFF;} .st4{fill:#D2ECF0;} </style> <polygon class="st0" points="127,67.9 127.1,61.8 100,61.8 100,102.2 106.8,102.2 106.8,85.6 125.1,85.6 125.1,79.6 106.8,79.6 106.8,67.9 "></polygon> <path class="st0" d="M156.7,87h-15.2l7.6-17.9L156.7,87z M159.3,93.1l3.9,9.1h7.3l-17.6-40.3h-7L128,102.2h7.1l3.9-9.1H159.3z"></path> <path class="st0" d="M190.4,61.6c-8.8,0-14.7,4.3-14.7,11.2c0,14.3,21.8,9.3,21.8,18.3c0,3.1-2.8,4.9-7.5,4.9 c-4.3,0-9.5-2.1-13.7-5.9l-2.9,5.9c4.1,3.8,10.1,6.4,16.5,6.4c8.9,0,15.2-4.4,15.2-11.6c0.1-14.5-21.7-9.8-21.7-18.6 c0-2.7,2.6-4.2,6.6-4.2c3.1,0,7.4,1.1,11.8,3.7l2.8-6C200.7,63.2,195.6,61.6,190.4,61.6z"></path> <polygon class="st0" points="242.2,67.9 242.2,61.8 209.9,61.8 209.9,67.9 222.6,67.9 222.6,102.2 229.4,102.2 229.4,67.9 "></polygon> <path class="st1" d="M256.5,67.9h9c6.2,0,9.7,2.5,9.7,7.8c0,5.5-3.5,8.1-9.7,8.1h-9V67.9z M249.7,61.8v40.3h6.8V90h9.3 c10.1,0,16-5.3,16-14.4c0-8.8-5.8-13.8-16-13.8H249.7z"></path> <rect x="290.2" y="61.8" class="st1" width="6.8" height="40.3"></rect> <polygon class="st1" points="327.9,81.2 341.5,61.8 333.5,61.8 323.6,75.8 313.8,61.8 305.9,61.8 319.5,81.5 304.8,102.2 312.8,102.2 323.6,87 334.5,102.2 342.6,102.2 "></polygon> <polygon class="st1" points="379.6,67.9 379.6,61.8 350.8,61.8 350.8,102.2 380.3,102.2 380.3,96.1 357.6,96.1 357.6,84.9 377.3,84.9 377.3,78.8 357.6,78.8 357.6,67.9 "></polygon> <polygon class="st1" points="397.1,96 397.1,61.8 390.3,61.8 390.3,102.2 414.6,102.2 414.6,96 "></polygon> <path class="st0" d="M49.8,33.9c-19.7,0-35.6,16-35.6,35.6c0,0.3,0,0.6,0,0.9l0,0V108h10.2V97.8h10.2v20.4h10.2V108H55v20.4h10.2 V97.8h10.2V108h10.2V72h-0.1c0.1-0.8,0.1-1.7,0.1-2.5C85.4,49.8,69.5,33.9,49.8,33.9L49.8,33.9z"></path> <path class="st2" d="M66.7,38.1c12.4,33.6-6.3,60.3-32.2,68.3v11.8h10.2V108h10.2v20.4h10.2V97.8h10.2V108h10.2V69.5 c0-7.7-2.5-15.1-7.1-21.3c-3.1-4.1-6.3-6.8-9-8.5C68.5,39.1,67.6,38.6,66.7,38.1z"></path> <path class="st3" d="M37.5,52.6c-3.7,0-7.3,1.5-9.9,4.1s-4.1,6.2-4.1,9.9c0,7.7,6.3,14,14,14c2.3,0,4.6-0.6,6.7-1.7l0,0 c1.7-1,3.6-1.5,5.6-1.5c1.8,0,3.7,0.5,5.3,1.3c2.1,1.2,4.5,1.9,7,1.9c7.7,0,14-6.3,14-14c0-3.7-1.5-7.3-4.1-9.9 c-2.6-2.6-6.2-4.1-9.9-4.1c-2.6,0-5.1,0.7-7.3,2c-1.6,0.8-3.3,1.2-5,1.2c-1.8,0-3.5-0.4-5.1-1.2C42.5,53.2,40,52.6,37.5,52.6z"></path> <path class="st1" d="M70.3,66.6c0,4.5-3.7,8.2-8.2,8.2s-8.2-3.7-8.2-8.2s3.7-8.2,8.2-8.2S70.3,62,70.3,66.6z"></path> <rect x="47.7" y="22.4" class="st0" width="4.2" height="12.4"></rect> <path class="st0" d="M55.4,19.8c0,3.1-2.5,5.6-5.6,5.6s-5.6-2.5-5.6-5.6s2.5-5.6,5.6-5.6C52.9,14.2,55.4,16.7,55.4,19.8z"></path> <path class="st1" d="M45.7,66.6c0,4.5-3.7,8.2-8.2,8.2s-8.2-3.7-8.2-8.2s3.7-8.2,8.2-8.2S45.7,62,45.7,66.6z"></path> <path class="st3" d="M41.7,61.2c0,2.3-1.9,4.2-4.2,4.2s-4.2-1.9-4.2-4.2s1.9-4.2,4.2-4.2S41.7,58.9,41.7,61.2z"></path> <path class="st3" d="M66.3,61.2c0,2.3-1.9,4.2-4.2,4.2s-4.2-1.9-4.2-4.2s1.9-4.2,4.2-4.2S66.3,58.9,66.3,61.2z"></path> <path class="st4" d="M37.5,52.6c-7.7,0-14,6.3-14,14c0,0.5,0,0.9,0.1,1.4c0.7-7.2,6.8-12.6,14-12.6c2.5,0,5,0.7,7.2,2 c1.6,0.8,3.3,1.2,5.1,1.2c1.7,0,3.4-0.4,5-1.2c2.2-1.3,4.7-2,7.3-2c7.2,0,13.2,5.5,14,12.6c0-0.5,0.1-0.9,0.1-1.4 c0-7.8-6.3-14-14-14c-2.6,0-5.1,0.7-7.3,2c-1.6,0.8-3.3,1.2-5,1.2c-1.8,0-3.5-0.4-5.1-1.2C42.5,53.2,40,52.6,37.5,52.6z"></path> <rect x="14.2" y="118.2" class="st1" width="10.2" height="10.2"></rect> <rect x="34.5" y="128.4" class="st1" width="10.2" height="10.2"></rect> <rect x="54.9" y="138.5" class="st1" width="10.2" height="10.2"></rect> <rect x="75.3" y="118.2" class="st1" width="10.2" height="10.2"></rect> </svg>