<?xml version="1.0" encoding="UTF-8"?>
<svg id="Layer_1" data-name="Layer 1" xmlns="http://www.w3.org/2000/svg" viewBox="0 0 400.42 135.61">
  <defs>
    <style>
      .cls-1 {
        fill: #fff;
      }

      .cls-2 {
        fill: #da4537;
      }

      .cls-3 {
        fill: #dbdbdb;
      }

      .cls-4 {
        fill: #d2ecf0;
      }

      .cls-5 {
        fill: #1abecb;
      }

      .cls-6 {
        fill: #17acb7;
      }
    </style>
  </defs>
  <g>
    <path class="cls-5" d="M35.62,20.74c-19.68,0-35.62,15.96-35.62,35.63,0,.31,0,.61.01.92h-.01s0,37.59,0,37.59h10.18v-10.18h10.18v20.36h10.18v-10.18h10.18v20.36h10.18v-30.54h10.18v10.18h10.18v-36.02l-.09.04c.06-.85.09-1.69.09-2.54,0-19.68-15.95-35.63-35.63-35.63h-.01Z"/>
    <path class="cls-6" d="M52.57,25.02c12.4,33.6-6.31,60.35-32.21,68.29v11.75h10.18v-10.18h10.18v20.36h10.18v-30.54h10.18v10.18h10.18v-38.51c0-7.68-2.48-15.15-7.07-21.3-3.11-4.06-6.26-6.75-9-8.48-.85-.56-1.73-1.08-2.62-1.57Z"/>
    <path class="cls-1" d="M23.32,39.44c-3.72,0-7.29,1.48-9.92,4.11-2.63,2.63-4.11,6.2-4.11,9.92,0,7.75,6.28,14.03,14.03,14.03,2.34,0,4.65-.59,6.7-1.7h0c1.71-.97,3.64-1.48,5.6-1.48,1.85,0,3.67.45,5.31,1.32,2.12,1.22,4.53,1.86,6.99,1.86,7.75,0,14.03-6.28,14.03-14.03,0-3.72-1.48-7.29-4.11-9.92-2.63-2.63-6.2-4.11-9.92-4.11-2.57,0-5.09.71-7.29,2.04-1.56.77-3.27,1.17-5.01,1.17s-3.53-.42-5.12-1.23c-2.17-1.3-4.65-1.98-7.18-1.98Z"/>
    <path class="cls-2" d="M56.14,53.47c0,4.54-3.68,8.22-8.23,8.22s-8.22-3.68-8.22-8.22,3.68-8.22,8.22-8.22,8.23,3.68,8.23,8.22Z"/>
    <rect class="cls-5" x="33.54" y="9.33" width="4.18" height="12.39"/>
    <path class="cls-5" d="M41.26,6.69c0,3.11-2.52,5.62-5.62,5.62s-5.63-2.52-5.63-5.62,2.52-5.62,5.63-5.62,5.62,2.52,5.62,5.62Z"/>
    <path class="cls-2" d="M31.55,53.47c0,4.54-3.68,8.22-8.22,8.22s-8.22-3.68-8.22-8.22,3.68-8.22,8.22-8.22,8.22,3.68,8.22,8.22Z"/>
    <path class="cls-1" d="M27.52,48.07c0,2.32-1.88,4.2-4.2,4.2s-4.2-1.88-4.2-4.2,1.88-4.2,4.2-4.2,4.2,1.88,4.2,4.2Z"/>
    <path class="cls-1" d="M52.12,48.07c0,2.32-1.88,4.2-4.2,4.2s-4.2-1.88-4.2-4.2,1.88-4.2,4.2-4.2,4.2,1.88,4.2,4.2Z"/>
    <path class="cls-4" d="M23.32,39.44c-7.75,0-14.03,6.28-14.03,14.03,0,.47.02.93.07,1.4.72-7.18,6.75-12.64,13.96-12.65,2.53,0,5.01.69,7.18,1.98,1.59.81,3.34,1.23,5.12,1.23s3.45-.4,5.01-1.17c2.2-1.33,4.71-2.04,7.29-2.04,7.21,0,13.24,5.47,13.96,12.64.05-.46.07-.92.07-1.39,0-7.75-6.28-14.03-14.03-14.03-2.57,0-5.09.71-7.29,2.04-1.56.77-3.27,1.17-5,1.17s-3.54-.42-5.12-1.23c-2.17-1.3-4.66-1.98-7.18-1.98Z"/>
    <rect class="cls-2" y="105.07" width="10.18" height="10.18"/>
    <rect class="cls-2" x="20.36" y="115.25" width="10.18" height="10.18"/>
    <rect class="cls-2" x="40.72" y="125.43" width="10.18" height="10.18"/>
    <rect class="cls-2" x="61.08" y="105.07" width="10.18" height="10.18"/>
    <path class="cls-1" d="M45.44,76.15c0,5.42-4.39,9.81-9.81,9.81s-9.81-4.39-9.81-9.81h19.62Z"/>
    <path class="cls-3" d="M27.51,12.77c-.29,0-.57-.12-.78-.34-.13-.14-3.1-3.52-.97-11.63.15-.57.73-.9,1.3-.76.57.15.91.73.76,1.3-1.8,6.88.48,9.64.5,9.67.38.44.34,1.11-.1,1.49-.2.18-.46.27-.71.27Z"/>
    <path class="cls-3" d="M23.07,10.6c-.19,0-.37-.08-.51-.23-.08-.09-2.04-2.32-.64-7.67.1-.37.48-.6.86-.5.37.1.6.48.5.86-1.19,4.54.31,6.36.33,6.38.25.29.22.73-.07.99-.13.12-.3.18-.47.18Z"/>
    <path class="cls-3" d="M43.74,12.77c-.26,0-.51-.09-.72-.28-.43-.4-.47-1.07-.07-1.5.01-.01,2.29-2.78.49-9.66-.15-.57.19-1.15.76-1.3.57-.15,1.15.19,1.3.76,2.12,8.11-.85,11.49-.97,11.63-.21.23-.5.35-.79.35Z"/>
    <path class="cls-3" d="M48.19,10.6c-.17,0-.34-.06-.47-.18-.29-.26-.31-.7-.05-.99,0,0,1.51-1.83.32-6.37-.1-.37.13-.76.5-.86.38-.1.76.13.86.5,1.4,5.35-.56,7.58-.64,7.67-.14.15-.33.23-.52.23Z"/>
  </g>
  <polygon class="cls-5" points="112.86 54.81 112.92 48.7 85.85 48.7 85.85 89.02 92.64 89.02 92.64 72.48 110.96 72.48 110.96 66.44 92.64 66.44 92.64 54.81 112.86 54.81"/>
  <path class="cls-5" d="M142.5,73.88h-15.2l7.61-17.92,7.59,17.92ZM145.1,79.92l3.86,9.09h7.26l-17.62-40.31h-6.97l-17.8,40.31h7.08l3.86-9.09h20.33Z"/>
  <path class="cls-5" d="M176.19,48.41c-8.75,0-14.69,4.33-14.69,11.24,0,14.34,21.77,9.33,21.77,18.31,0,3.11-2.81,4.91-7.55,4.91-4.31,0-9.5-2.08-13.64-5.88l-2.94,5.88c4.14,3.8,10.14,6.39,16.47,6.39,8.88,0,15.2-4.44,15.2-11.64.06-14.52-21.7-9.78-21.7-18.59,0-2.72,2.58-4.2,6.56-4.2,3.05,0,7.42,1.09,11.8,3.74l2.83-5.99c-3.75-2.48-8.88-4.16-14.11-4.16Z"/>
  <polygon class="cls-5" points="228 54.81 228 48.7 195.69 48.7 195.69 54.81 208.42 54.81 208.42 89.02 215.22 89.02 215.22 54.81 228 54.81"/>
  <path class="cls-2" d="M242.33,54.81h8.98c6.22,0,9.73,2.53,9.73,7.83s-3.52,8.12-9.73,8.12h-8.98v-15.95ZM235.53,48.7v40.31h6.8v-12.16h9.28c10.12,0,15.95-5.3,15.95-14.39s-5.83-13.77-15.95-13.77h-16.08Z"/>
  <rect class="cls-2" x="276" y="48.7" width="6.8" height="40.31"/>
  <polygon class="cls-2" points="313.76 68.05 327.31 48.7 319.35 48.7 309.45 62.69 299.6 48.7 291.71 48.7 305.35 68.34 290.67 89.02 298.62 89.02 309.45 73.81 320.34 89.02 328.45 89.02 313.76 68.05"/>
  <polygon class="cls-2" points="365.47 54.81 365.47 48.7 336.67 48.7 336.67 89.02 366.16 89.02 366.16 82.91 343.47 82.91 343.47 71.8 363.17 71.8 363.17 65.69 343.47 65.69 343.47 54.81 365.47 54.81"/>
  <polygon class="cls-2" points="382.96 82.86 382.96 48.7 376.17 48.7 376.17 89.02 400.42 89.02 400.42 82.86 382.96 82.86"/>
</svg>